<svg width="35" height="28" viewBox="0 0 35 28" fill="none" xmlns="http://www.w3.org/2000/svg">
<g id="Group">
<path id="Vector" d="M2.36365 5.39394C2.36365 4.50989 2.71484 3.66204 3.33996 3.03692C3.96508 2.4118 4.81293 2.06061 5.69698 2.06061H29.0303C29.9144 2.06061 30.7622 2.4118 31.3873 3.03692C32.0125 3.66204 32.3636 4.50989 32.3636 5.39394V22.0606C32.3636 22.9447 32.0125 23.7925 31.3873 24.4176C30.7622 25.0428 29.9144 25.3939 29.0303 25.3939H5.69698C4.81293 25.3939 3.96508 25.0428 3.33996 24.4176C2.71484 23.7925 2.36365 22.9447 2.36365 22.0606V5.39394Z" stroke="#005000" stroke-width="3.39394" stroke-linecap="round" stroke-linejoin="round"/>
<path id="Vector_2" d="M2.36365 5.39386L17.3636 15.3939L32.3636 5.39386" stroke="#005000" stroke-width="3.39394" stroke-linecap="round" stroke-linejoin="round"/>
</g>
</svg>
