<svg width="30" height="39" viewBox="0 0 30 39" fill="none" xmlns="http://www.w3.org/2000/svg">
<path id="Vector" d="M15 0.363647C11.0232 0.368339 7.21062 1.9502 4.39859 4.76222C1.58656 7.57425 0.0047075 11.3868 1.59585e-05 15.3636C-0.00474707 18.6135 1.05681 21.7751 3.02183 24.3636C3.02183 24.3636 3.43092 24.9023 3.49774 24.98L15 38.5454L26.5077 24.9732C26.5677 24.9009 26.9782 24.3636 26.9782 24.3636L26.9795 24.3595C28.9436 21.7722 30.0046 18.612 30 15.3636C29.9953 11.3868 28.4134 7.57425 25.6014 4.76222C22.7894 1.9502 18.9768 0.368339 15 0.363647ZM15 20.8182C13.9212 20.8182 12.8666 20.4983 11.9696 19.8989C11.0726 19.2996 10.3735 18.4477 9.96066 17.451C9.54782 16.4543 9.4398 15.3576 9.65027 14.2995C9.86073 13.2414 10.3802 12.2695 11.1431 11.5067C11.9059 10.7439 12.8778 10.2244 13.9359 10.0139C14.9939 9.80343 16.0907 9.91145 17.0874 10.3243C18.084 10.7371 18.9359 11.4363 19.5353 12.3333C20.1346 13.2302 20.4545 14.2848 20.4545 15.3636C20.4527 16.8097 19.8775 18.196 18.8549 19.2186C17.8324 20.2411 16.4461 20.8164 15 20.8182Z" fill="#005000"/>
</svg>
