<svg width="21" height="20" viewBox="0 0 21 20" fill="none" xmlns="http://www.w3.org/2000/svg">
<g id="Frame">
<path id="Vector" fill-rule="evenodd" clip-rule="evenodd" d="M12.3625 1.36104C11.4312 0.574966 10.0688 0.574967 9.13749 1.36104L8.28932 2.07692C7.89349 2.41102 7.40365 2.61394 6.8875 2.65759L5.78155 2.75111C4.56717 2.85381 3.60381 3.81717 3.50111 5.03155L3.40759 6.1375C3.36394 6.65365 3.16102 7.14349 2.82692 7.53934L2.11104 8.38749C1.32497 9.3188 1.32497 10.6812 2.11104 11.6125L2.82692 12.4607C3.16102 12.8565 3.36394 13.3464 3.40759 13.8625L3.50111 14.9685C3.60381 16.1829 4.56717 17.1462 5.78155 17.2489L6.8875 17.3424C7.40365 17.3861 7.89349 17.589 8.28934 17.9231L9.13749 18.639C10.0688 19.425 11.4312 19.425 12.3625 18.639L13.2107 17.9231C13.6065 17.589 14.0964 17.3861 14.6125 17.3424L15.7185 17.2489C16.9329 17.1462 17.8962 16.1829 17.9989 14.9685L18.0924 13.8625C18.1361 13.3464 18.339 12.8565 18.6731 12.4607L19.389 11.6125C20.175 10.6812 20.175 9.3188 19.389 8.38749L18.6731 7.53932C18.339 7.14349 18.1361 6.65365 18.0924 6.1375L17.9989 5.03155C17.8962 3.81717 16.9329 2.85381 15.7185 2.75111L14.6125 2.65759C14.0964 2.61394 13.6065 2.41102 13.2107 2.07692L12.3625 1.36104ZM15.296 8.29555C15.7354 7.85621 15.7354 7.1439 15.296 6.70456C14.8567 6.26521 14.1444 6.26521 13.705 6.70456L9.50054 10.9091L7.79604 9.20456C7.3567 8.76521 6.64439 8.76521 6.20505 9.20456C5.7657 9.6439 5.7657 10.3562 6.20505 10.7956L8.70505 13.2955C9.14439 13.7349 9.8567 13.7349 10.296 13.2955L15.296 8.29555Z" fill="#252430"/>
</g>
</svg>
