<svg width="36" height="18" viewBox="0 0 36 18" fill="none" xmlns="http://www.w3.org/2000/svg">
<g id="Group">
<path id="Vector" fill-rule="evenodd" clip-rule="evenodd" d="M32.34 3.45395C32.0867 3.45181 31.8381 3.5264 31.6223 3.66923C31.4066 3.81205 31.2325 4.01734 31.12 4.26165L28.88 9.79703L28.07 4.26165C28.04 4.02259 27.9255 3.8052 27.7504 3.65475C27.5753 3.5043 27.3531 3.43237 27.13 3.45395H24.29L26.72 12.6509C26.7553 12.8429 26.7553 13.0404 26.72 13.2324C26.6467 13.6133 26.4573 13.9569 26.1819 14.2086C25.9065 14.4604 25.5609 14.6057 25.2 14.6216H23.63C23.22 14.6216 22.96 14.8909 22.83 15.5047L22.47 17.7878H25.28C26.1831 17.7574 27.0618 17.4639 27.8225 16.9386C28.5831 16.4134 29.1974 15.6759 29.6 14.8047L35.22 3.45395H32.34Z" fill="#323E48"/>
<path id="Vector_2" fill-rule="evenodd" clip-rule="evenodd" d="M4.74003 0.707764C5.58003 0.707764 5.99003 1.06315 5.84003 1.97853L5.60003 3.45392H7.53003L7.10003 6.0493H5.17003L4.65003 9.28007C4.46003 10.357 5.49003 10.5508 6.08003 10.5508H6.37003L5.90003 13.4155C5.75003 13.4155 5.60003 13.4155 5.28003 13.4155C3.82003 13.4155 1.05003 12.9955 1.59003 9.66776L2.19003 6.01699H0.780029L1.21003 3.42161H2.60003L3.05003 0.707764H4.74003Z" fill="#323E48"/>
<path id="Vector_3" fill-rule="evenodd" clip-rule="evenodd" d="M21.0001 3.61548L20.5101 6.64163C20.8686 6.83911 21.1586 7.15528 21.3377 7.54361C21.5167 7.93195 21.5753 8.37192 21.5048 8.79878C21.4342 9.22565 21.2383 9.61685 20.9458 9.91481C20.6534 10.2128 20.2798 10.4018 19.8801 10.4539L19.3901 13.4801H19.6501C20.7725 13.4792 21.8572 13.0439 22.7065 12.2537C23.5557 11.4634 24.113 10.3707 24.2766 9.17495C24.4403 7.97916 24.1994 6.75985 23.598 5.73933C22.9965 4.71881 22.0745 3.96505 21.0001 3.61548Z" fill="#00ADBB"/>
<path id="Vector_4" fill-rule="evenodd" clip-rule="evenodd" d="M18.7501 10.2061C18.3919 10.0094 18.1017 9.69409 17.9222 9.30662C17.7427 8.91916 17.6832 8.47991 17.7526 8.05338C17.822 7.62685 18.0165 7.2355 18.3076 6.93681C18.5987 6.63811 18.9711 6.44781 19.3701 6.39383L19.8701 3.36768H19.6001C18.481 3.37724 17.402 3.81742 16.5579 4.60873C15.7138 5.40004 15.1603 6.49031 14.9973 7.68265C14.8343 8.87498 15.0726 10.0908 15.6691 11.1105C16.2656 12.1302 17.181 12.8866 18.2501 13.2431L18.7501 10.2061Z" fill="#00ADBB"/>
<path id="Vector_5" fill-rule="evenodd" clip-rule="evenodd" d="M8.64 3.45402H10.3C11.14 3.45402 11.55 3.8094 11.4 4.72478L11.22 5.80171C11.5231 5.11128 11.9912 4.52005 12.5764 4.08859C13.1615 3.65713 13.8427 3.40096 14.55 3.34632C14.6665 3.33671 14.7835 3.33671 14.9 3.34632L14.37 6.57709C14.1662 6.53088 13.9583 6.5092 13.75 6.51248C13.1986 6.49441 12.6541 6.64848 12.1821 6.95611C11.7101 7.26375 11.3309 7.71182 11.09 8.24632C10.9092 8.67521 10.7815 9.12779 10.71 9.59248L10.11 13.3079H7L8.64 3.45402Z" fill="#323E48"/>
</g>
</svg>
