<svg width="60" height="60" viewBox="0 0 60 60" fill="none" xmlns="http://www.w3.org/2000/svg">
<g id="Icon">
<path id="Circle 2" opacity="0.21" d="M37 0C49.7025 0 60 10.2975 60 23V37C60 49.7025 49.7025 60 37 60H23C10.2975 60 0 49.7025 0 37V23C0 10.2975 10.2975 0 23 0H37Z" fill="#8280FF"/>
<g id="Group">
<path id="Combined Shape" opacity="0.587821" d="M37.9997 24.667C40.2088 24.667 41.9997 26.4579 41.9997 28.667C41.9995 30.876 40.2087 32.667 37.9997 32.667C35.7908 32.6668 33.9998 30.8759 33.9997 28.667C33.9997 26.458 35.7907 24.6672 37.9997 24.667ZM25.9997 18C28.9451 18 31.3335 20.3876 31.3336 23.333C31.3336 26.2785 28.9452 28.667 25.9997 28.667C23.0543 28.6668 20.6667 26.2784 20.6667 23.333C20.6668 20.3877 23.0544 18.0002 25.9997 18Z" fill="#8280FF"/>
<path id="Combined Shape_2" d="M25.9774 31.3335C32.3611 31.3335 37.6061 34.391 37.997 40.9331C38.0125 41.1937 37.9966 42.0005 36.995 42.0005H14.9696C14.6351 42.0001 13.9727 41.2787 14.0009 40.9321C14.5178 34.5688 19.6824 31.3336 25.9774 31.3335ZM37.4686 34.0024C42.0103 34.0523 45.7187 36.3471 45.9979 41.1997C46.0092 41.3952 45.9977 42.0005 45.2743 42.0005H40.1337C40.1337 38.9998 39.1416 36.2305 37.4686 34.0024Z" fill="#8280FF"/>
</g>
</g>
</svg>
